<svg width="462" height="142" viewBox="0 0 462 142" fill="none" xmlns="http://www.w3.org/2000/svg">
<g clip-path="url(#clip0_36_90245)">
<path d="M22.1094 9.25391H24.5847V21.9639H22.1094V9.25391Z" fill="#111111"/>
<path d="M27.4688 8.44922H29.9441V21.1592H27.4688V8.44922Z" fill="#111111"/>
<path d="M11.3906 10.8594H13.8659V23.5694H11.3906V10.8594Z" fill="#111111"/>
<path d="M16.75 10.0586H19.2253V22.7686H16.75V10.0586Z" fill="#111111"/>
<path d="M95.5624 15.289L91.5744 10.8398H89.2422V21.1398H91.6759V14.5687L95.3179 18.4621H95.7673L99.3474 14.5687V21.1398H101.781V10.8398H99.4498L95.5624 15.289Z" fill="#111111"/>
<path d="M113.383 10.8398L107.349 17.5345V10.8398H104.914V21.1398H107.144L113.178 14.4451V21.1398H115.613V10.8398H113.383Z" fill="#111111"/>
<path d="M76.1345 14.6096C76.1345 16.2497 77.0228 17.5404 78.4001 18.0816L75.8281 21.1398H78.8147L81.1538 18.359H83.6822V21.1398H86.116V10.8398H79.9185C77.6104 10.8398 76.1345 12.4264 76.1345 14.6096ZM83.6822 13.1058V16.1543H80.3689C79.2642 16.1543 78.6707 15.5363 78.6707 14.6301C78.6707 13.7034 79.2845 13.1058 80.3689 13.1058H83.6822Z" fill="#111111"/>
<path d="M64.8146 12.8975C64.6705 16.4415 63.9137 18.7279 62.462 18.7279H62.0938V21.1992L62.4804 21.2206C65.4051 21.3851 67.0231 18.8096 67.287 13.1866H71.1328V21.1379H73.5676V10.8398H64.8957L64.8146 12.8975Z" fill="#111111"/>
<path d="M55.658 10.6953C52.365 10.6953 49.9922 12.9817 49.9922 15.9894C49.9922 19.1041 52.5699 21.3038 55.658 21.3038C58.8699 21.3038 61.3606 18.9766 61.3606 15.9894C61.3655 13.0226 58.8699 10.6953 55.658 10.6953ZM55.658 18.8325C53.7965 18.8325 52.5284 17.6168 52.5284 15.9894C52.5284 14.321 53.7965 13.1462 55.658 13.1462C57.4993 13.1462 58.8293 14.3824 58.8293 15.9894C58.8293 17.5964 57.4993 18.8345 55.658 18.8345V18.8325Z" fill="#111111"/>
<path d="M47.4128 10.8594H38.8222L38.7401 12.92C38.6173 15.8857 37.8402 18.7085 36.3875 18.7493L35.7109 18.7698V23.5694H38.165V21.136H46.6957V23.5694H49.17V18.7493H47.4109L47.4128 10.8594ZM44.9791 18.7493H39.783C40.6625 17.41 41.1361 15.474 41.2154 13.2081H44.9791V18.7493Z" fill="#111111"/>
</g>
<path d="M161.332 4.356V12H162.556V4.356H165.388V3.3H158.5V4.356H161.332ZM169.386 12.156C171.894 12.156 173.466 10.272 173.466 7.644C173.466 5.016 171.894 3.144 169.386 3.144C166.878 3.144 165.306 5.016 165.306 7.644C165.306 10.272 166.878 12.156 169.386 12.156ZM169.386 11.124C167.802 11.124 166.554 9.888 166.554 7.644C166.554 5.4 167.802 4.176 169.386 4.176C170.97 4.176 172.218 5.4 172.218 7.644C172.218 9.888 170.97 11.124 169.386 11.124ZM174.992 3.3V12H178.424C180.164 12 181.544 11.28 181.544 9.432C181.544 8.364 181.052 7.716 180.224 7.368C180.824 7.02 181.184 6.276 181.184 5.448C181.184 3.72 179.744 3.3 178.124 3.3H174.992ZM176.216 7.02V4.332H178.316C179.288 4.332 179.948 4.728 179.948 5.616C179.948 6.636 179.312 7.02 178.316 7.02H176.216ZM176.216 10.968V7.992H178.364C179.672 7.992 180.284 8.424 180.284 9.444C180.284 10.428 179.672 10.968 178.436 10.968H176.216ZM185.091 3.3L181.863 12H183.111L183.783 10.116H187.779L188.463 12H189.783L186.507 3.3H185.091ZM184.155 9.072L185.763 4.536L187.395 9.072H184.155ZM193.479 3.3H190.755V12H191.979V8.556H193.479C195.603 8.556 197.091 8.088 197.091 5.928C197.091 3.78 195.603 3.3 193.479 3.3ZM191.979 4.332H193.575C194.847 4.332 195.843 4.512 195.843 5.928C195.843 7.356 194.847 7.488 193.575 7.488H191.979V4.332ZM200.15 9.228H203.966V8.196H200.15V9.228ZM215.193 9.228H214.005C213.729 10.344 212.877 11.124 211.497 11.124C209.877 11.124 208.725 9.828 208.725 7.632C208.725 5.376 209.925 4.176 211.461 4.176C212.853 4.176 213.693 4.992 213.957 6.072H215.145C214.773 4.212 213.321 3.144 211.521 3.144C209.061 3.144 207.477 4.932 207.477 7.632C207.477 10.284 208.929 12.156 211.425 12.156C213.309 12.156 214.809 11.148 215.193 9.228ZM216.484 3.3V12H222.388V10.944H217.708V8.052H222.112V6.996H217.708V4.356H222.388V3.3H216.484ZM229.705 1.368H228.781C228.685 1.812 228.253 2.088 227.497 2.088C226.741 2.088 226.297 1.824 226.225 1.368H225.301C225.421 2.196 226.105 2.82 227.485 2.82C228.901 2.82 229.609 2.196 229.705 1.368ZM229.801 5.088V12H231.025V3.3H229.801L225.121 10.2V3.3H223.897V12H225.121L229.801 5.088ZM239.114 12V3.3H237.89V7.56C237.266 7.704 236.558 7.788 236.006 7.788C234.614 7.788 233.882 7.356 233.882 5.904V3.3H232.658V6.216C232.658 7.992 233.666 8.868 235.646 8.868C236.342 8.868 237.158 8.748 237.89 8.592V12H239.114ZM243.318 3.3L240.09 12H241.338L242.01 10.116H246.006L246.69 12H248.01L244.734 3.3H243.318ZM242.382 9.072L243.99 4.536L245.622 9.072H242.382ZM255.841 9.228H254.653C254.377 10.344 253.525 11.124 252.145 11.124C250.525 11.124 249.373 9.828 249.373 7.632C249.373 5.376 250.573 4.176 252.109 4.176C253.501 4.176 254.341 4.992 254.605 6.072H255.793C255.421 4.212 253.969 3.144 252.169 3.144C249.709 3.144 248.125 4.932 248.125 7.632C248.125 10.284 249.577 12.156 252.073 12.156C253.957 12.156 255.457 11.148 255.841 9.228ZM256.76 10.62V12H257.348L256.712 13.668H257.408L258.14 12.096V10.62H256.76ZM264.577 3.3L261.349 12H262.597L263.269 10.116H267.265L267.949 12H269.269L265.993 3.3H264.577ZM263.641 9.072L265.249 4.536L266.881 9.072H263.641ZM278.416 12H279.64V3.3H272.848V12H274.072V4.356H278.416V12ZM285.241 12.156C287.749 12.156 289.321 10.272 289.321 7.644C289.321 5.016 287.749 3.144 285.241 3.144C282.733 3.144 281.161 5.016 281.161 7.644C281.161 10.272 282.733 12.156 285.241 12.156ZM285.241 11.124C283.657 11.124 282.409 9.888 282.409 7.644C282.409 5.4 283.657 4.176 285.241 4.176C286.825 4.176 288.073 5.4 288.073 7.644C288.073 9.888 286.825 11.124 285.241 11.124ZM296.08 12H297.304V3.3H291.844L291.784 5.496C291.688 8.472 291.388 10.944 290.236 10.944H290.056V12H290.416C292.204 12 292.804 9.636 292.948 5.868L293.008 4.356H296.08V12ZM306.394 3.3H305.17V6.996H300.598V3.3H299.374V12H300.598V8.052H305.17V12H306.394V3.3ZM308.642 12.168H309.542C310.55 12.168 311.306 11.568 311.762 10.572L314.966 3.3H313.61L311.282 8.952L308.75 3.3H307.43L310.67 10.224L310.502 10.536C310.262 10.98 309.89 11.112 309.458 11.112H308.642V12.168ZM326.908 7.644C326.908 4.944 325.216 3.144 322.684 3.144C320.416 3.144 318.904 4.668 318.664 6.984H316.864V3.3H315.64V12H316.864V8.04H318.64C318.784 10.5 320.32 12.156 322.684 12.156C325.216 12.156 326.908 10.356 326.908 7.644ZM325.66 7.644C325.66 9.888 324.376 11.124 322.684 11.124C321.064 11.124 319.864 9.888 319.864 7.644C319.864 5.412 321.064 4.176 322.684 4.176C324.376 4.176 325.66 5.412 325.66 7.644ZM338.215 9.228H337.027C336.751 10.344 335.899 11.124 334.519 11.124C332.899 11.124 331.747 9.828 331.747 7.632C331.747 5.376 332.947 4.176 334.483 4.176C335.875 4.176 336.715 4.992 336.979 6.072H338.167C337.795 4.212 336.343 3.144 334.543 3.144C332.083 3.144 330.499 4.932 330.499 7.632C330.499 10.284 331.951 12.156 334.447 12.156C336.331 12.156 337.831 11.148 338.215 9.228ZM341.01 4.356V12H342.234V4.356H345.066V3.3H338.178V4.356H341.01ZM349.064 12.156C351.572 12.156 353.144 10.272 353.144 7.644C353.144 5.016 351.572 3.144 349.064 3.144C346.556 3.144 344.984 5.016 344.984 7.644C344.984 10.272 346.556 12.156 349.064 12.156ZM349.064 11.124C347.48 11.124 346.232 9.888 346.232 7.644C346.232 5.4 347.48 4.176 349.064 4.176C350.648 4.176 351.896 5.4 351.896 7.644C351.896 9.888 350.648 11.124 349.064 11.124ZM360.574 5.088V12H361.798V3.3H360.574L355.894 10.2V3.3H354.67V12H355.894L360.574 5.088ZM367.488 12H368.784L371.184 4.416V12H372.408V3.3H370.356L368.136 10.548L365.916 3.3H363.864V12H365.088V4.416L367.488 12ZM378.015 12.156C380.523 12.156 382.095 10.272 382.095 7.644C382.095 5.016 380.523 3.144 378.015 3.144C375.507 3.144 373.935 5.016 373.935 7.644C373.935 10.272 375.507 12.156 378.015 12.156ZM378.015 11.124C376.431 11.124 375.183 9.888 375.183 7.644C375.183 5.4 376.431 4.176 378.015 4.176C379.599 4.176 380.847 5.4 380.847 7.644C380.847 9.888 379.599 11.124 378.015 11.124ZM390.915 9.228H389.727C389.451 10.344 388.599 11.124 387.219 11.124C385.599 11.124 384.447 9.828 384.447 7.632C384.447 5.376 385.647 4.176 387.183 4.176C388.575 4.176 389.415 4.992 389.679 6.072H390.867C390.495 4.212 389.043 3.144 387.243 3.144C384.783 3.144 383.199 4.932 383.199 7.632C383.199 10.284 384.651 12.156 387.147 12.156C389.031 12.156 390.531 11.148 390.915 9.228ZM393.711 4.356V12H394.935V4.356H397.767V3.3H390.879V4.356H393.711ZM398.681 3.3V12H401.189C403.337 12 404.897 11.46 404.897 9.252C404.897 7.008 403.337 6.504 401.189 6.504H399.905V3.3H398.681ZM401.237 10.944H399.905V7.56H401.237C402.557 7.56 403.613 7.812 403.613 9.252C403.613 10.668 402.557 10.944 401.237 10.944ZM408.077 9.228H411.893V8.196H408.077V9.228ZM162.376 19.3H159.652V28H160.876V24.556H162.376C164.5 24.556 165.988 24.088 165.988 21.928C165.988 19.78 164.5 19.3 162.376 19.3ZM160.876 20.332H162.472C163.744 20.332 164.74 20.512 164.74 21.928C164.74 23.356 163.744 23.488 162.472 23.488H160.876V20.332ZM168.368 19.3L165.14 28H166.388L167.06 26.116H171.056L171.74 28H173.06L169.784 19.3H168.368ZM167.432 25.072L169.04 20.536L170.672 25.072H167.432ZM179.841 25.54C179.841 24.316 179.241 23.68 178.305 23.404C179.061 23.02 179.517 22.372 179.517 21.484C179.517 19.996 178.221 19.144 176.649 19.144C174.825 19.144 173.661 20.248 173.445 21.928H174.657C174.789 20.764 175.629 20.176 176.589 20.176C177.621 20.176 178.269 20.68 178.269 21.616C178.269 22.528 177.573 23.008 176.553 23.008H175.593V24.004H176.625C177.957 24.004 178.593 24.532 178.593 25.504C178.593 26.476 177.921 27.112 176.613 27.112C175.425 27.112 174.645 26.548 174.441 25.504H173.241C173.577 27.124 174.657 28.144 176.529 28.144C178.245 28.144 179.841 27.364 179.841 25.54ZM188.627 29.812V26.944H187.571V19.3H182.087L182.051 21.844C182.015 24.616 181.679 26.944 180.659 26.944H180.287V29.812H181.415V28H187.499V29.812H188.627ZM186.347 20.356V26.944H182.219C182.759 26.212 183.203 24.628 183.239 22.24L183.263 20.356H186.347ZM189.899 19.3V28H195.803V26.944H191.123V24.052H195.527V22.996H191.123V20.356H195.803V19.3H189.899ZM202.543 28H203.767V19.3H198.307L198.247 21.496C198.151 24.472 197.851 26.944 196.699 26.944H196.519V28H196.879C198.667 28 199.267 25.636 199.411 21.868L199.471 20.356H202.543V28ZM211.741 21.088V28H212.965V19.3H211.741L207.061 26.2V19.3H205.837V28H207.061L211.741 21.088ZM216.711 20.356V28H217.935V20.356H220.767V19.3H213.879V20.356H216.711ZM221.681 19.3V28H227.585V26.944H222.905V24.052H227.309V22.996H222.905V20.356H227.585V19.3H221.681ZM238.721 19.3H237.497V22.996H232.925V19.3H231.701V28H232.925V24.052H237.497V28H238.721V19.3ZM242.925 19.3L239.697 28H240.945L241.617 26.116H245.613L246.297 28H247.617L244.341 19.3H242.925ZM241.989 25.072L243.597 20.536L245.229 25.072H241.989ZM257.268 25.852V24.82H255.672V19.3H254.556L250.248 24.82V25.852H254.568V28H255.672V25.852H257.268ZM251.46 24.82L254.568 20.8V24.82H251.46ZM263.776 19.3H261.052V28H262.276V24.556H263.776C265.9 24.556 267.388 24.088 267.388 21.928C267.388 19.78 265.9 19.3 263.776 19.3ZM262.276 20.332H263.872C265.144 20.332 266.14 20.512 266.14 21.928C266.14 23.356 265.144 23.488 263.872 23.488H262.276V20.332ZM269.768 19.3L266.54 28H267.788L268.46 26.116H272.456L273.14 28H274.46L271.184 19.3H269.768ZM268.832 25.072L270.44 20.536L272.072 25.072H268.832ZM275.431 19.3V28H278.863C280.603 28 281.983 27.28 281.983 25.432C281.983 24.364 281.491 23.716 280.663 23.368C281.263 23.02 281.623 22.276 281.623 21.448C281.623 19.72 280.183 19.3 278.563 19.3H275.431ZM276.655 23.02V20.332H278.755C279.727 20.332 280.387 20.728 280.387 21.616C280.387 22.636 279.751 23.02 278.755 23.02H276.655ZM276.655 26.968V23.992H278.803C280.111 23.992 280.723 24.424 280.723 25.444C280.723 26.428 280.111 26.968 278.875 26.968H276.655ZM290.415 19.3H289.191V22.996H284.619V19.3H283.395V28H284.619V24.052H289.191V28H290.415V19.3ZM292.483 19.3V28H294.751C296.899 28 298.459 27.46 298.459 25.252C298.459 23.008 296.899 22.504 294.751 22.504H293.707V19.3H292.483ZM299.659 28H300.883V19.3H299.659V28ZM294.799 26.944H293.707V23.56H294.799C296.119 23.56 297.175 23.812 297.175 25.252C297.175 26.668 296.119 26.944 294.799 26.944ZM302.942 19.3V28H308.846V26.944H304.166V24.052H308.57V22.996H304.166V20.356H308.846V19.3H302.942ZM318.986 28V19.3H317.762V23.56C317.138 23.704 316.43 23.788 315.878 23.788C314.486 23.788 313.754 23.356 313.754 21.904V19.3H312.53V22.216C312.53 23.992 313.538 24.868 315.518 24.868C316.214 24.868 317.03 24.748 317.762 24.592V28H318.986ZM323.19 19.3L319.962 28H321.21L321.882 26.116H325.878L326.562 28H327.882L324.606 19.3H323.19ZM322.254 25.072L323.862 20.536L325.494 25.072H322.254ZM335.713 25.228H334.525C334.249 26.344 333.397 27.124 332.017 27.124C330.397 27.124 329.245 25.828 329.245 23.632C329.245 21.376 330.445 20.176 331.981 20.176C333.373 20.176 334.213 20.992 334.477 22.072H335.665C335.293 20.212 333.841 19.144 332.041 19.144C329.581 19.144 327.997 20.932 327.997 23.632C327.997 26.284 329.449 28.156 331.945 28.156C333.829 28.156 335.329 27.148 335.713 25.228ZM338.508 20.356V28H339.732V20.356H342.564V19.3H335.676V20.356H338.508ZM349.382 21.088V28H350.606V19.3H349.382L344.702 26.2V19.3H343.478V28H344.702L349.382 21.088Z" fill="#111111"/>
<circle cx="45.5" cy="97" r="44.5" stroke="#111111"/>
<circle cx="45.5" cy="97" r="35" fill="white"/>
<g filter="url(#filter0_d_36_90245)">
<path d="M14 97C12.067 97 10.4819 95.4291 10.6749 93.5058C11.0158 90.1082 11.8527 86.7724 13.1642 83.6061C14.9231 79.3597 17.5012 75.5013 20.7513 72.2513C24.0013 69.0012 27.8597 66.4231 32.1061 64.6642C35.2724 63.3527 38.6082 62.5158 42.0058 62.1749C43.9291 61.9819 45.5 63.567 45.5 65.5C45.5 67.433 43.927 68.9775 42.0091 69.2185C39.5315 69.5298 37.1015 70.1718 34.7849 71.1314C31.3877 72.5385 28.3011 74.601 25.701 77.201C23.101 79.801 21.0385 82.8877 19.6314 86.2849C18.6718 88.6015 18.0298 91.0315 17.7185 93.5091C17.4775 95.427 15.933 97 14 97Z" fill="#111111"/>
</g>
<path d="M28.02 94H29.294V83.85H28.426C27.866 84.956 27.124 85.138 25.668 85.194V86.062H28.02V94ZM36.6183 91.158C36.6183 92.418 35.6663 93.118 34.3223 93.118C32.8943 93.118 32.1523 92.25 32.0123 91.004H30.6963C30.8363 92.698 31.9283 94.182 34.3083 94.182C36.2403 94.182 37.9763 93.188 37.9763 91.144C37.9763 90.08 37.5563 89.072 36.0443 88.596C37.1083 88.162 37.6963 87.28 37.6963 86.244C37.6963 84.368 36.1703 83.668 34.4063 83.668C32.2783 83.668 31.0043 84.914 30.8503 86.706H32.1663C32.2783 85.558 33.0203 84.732 34.3783 84.732C35.4563 84.732 36.3523 85.292 36.3523 86.384C36.3523 87.574 35.4143 88.064 33.6503 88.064H33.4823V89.226H33.6923C35.3163 89.226 36.6183 89.702 36.6183 91.158ZM49.4734 95.666V92.894H48.4234V86.468H43.3414L43.2434 88.89C43.1174 91.774 42.6834 92.894 41.8294 92.894H41.4934V95.666H42.7254V94H48.2414V95.666H49.4734ZM47.1494 87.574V92.894H43.4814C44.0694 92.32 44.3914 91.256 44.5034 89.016L44.5734 87.574H47.1494ZM51.2615 90.654H57.0575C57.2255 88.274 55.8395 86.342 53.5435 86.342C51.4855 86.342 49.8895 87.868 49.8895 90.248C49.8895 92.474 51.2055 94.182 53.5855 94.182C55.4195 94.182 56.6095 93.118 56.9595 91.816H55.6435C55.3215 92.558 54.7055 93.062 53.5855 93.062C52.4655 93.062 51.3175 92.278 51.2615 90.654ZM51.2755 89.562C51.3875 88.05 52.4095 87.434 53.5435 87.434C54.8875 87.434 55.6855 88.498 55.7135 89.562H51.2755ZM60.6 90.654L63.19 94H64.772L61.636 90.024L64.478 86.468H62.966L60.572 89.548H59.634V86.468H58.346V94H59.634V90.654H60.6Z" fill="#111111"/>
<path opacity="0.6" d="M37.448 102.328C37.448 100.62 36.104 99.668 34.228 99.668C32.072 99.668 30.672 100.998 30.7 103.014H32.016C32.044 101.334 33.108 100.732 34.2 100.732C35.404 100.732 36.104 101.446 36.104 102.496C36.104 104.288 34.004 106.206 30.42 108.852V110H37.728V108.81H32.156C34.998 106.766 37.448 104.68 37.448 102.328ZM44.4738 106.668C44.4738 108.236 43.4238 109.118 42.2058 109.118C40.7918 109.118 40.1058 108.334 39.9098 107.06H38.5938C38.7898 108.698 39.8538 110.182 42.2058 110.182C44.0958 110.182 45.8178 108.978 45.8178 106.654C45.8178 104.414 44.2638 103.154 42.4858 103.154C41.6458 103.154 40.8338 103.406 40.3018 103.924L40.6518 101.04H45.4398V99.85H39.6158L38.9578 105.31L40.2318 105.38C40.4558 104.876 41.1418 104.26 42.1918 104.26C43.2978 104.26 44.4738 104.988 44.4738 106.668ZM46.7197 102.706C46.7197 104.442 47.4897 105.66 49.0017 105.66C50.5417 105.66 51.3117 104.442 51.3117 102.706C51.3117 100.97 50.5417 99.752 49.0017 99.752C47.4897 99.752 46.7197 100.97 46.7197 102.706ZM48.9877 110H50.4017L57.4017 99.85H55.9877L48.9877 110ZM50.2477 102.706C50.2477 104.092 49.8137 104.89 49.0017 104.89C48.2177 104.89 47.7837 104.092 47.7837 102.706C47.7837 101.306 48.2177 100.508 49.0017 100.508C49.8137 100.508 50.2477 101.306 50.2477 102.706ZM55.1197 107.144C55.1197 108.88 55.8897 110.098 57.4017 110.098C58.9417 110.098 59.7117 108.88 59.7117 107.144C59.7117 105.408 58.9417 104.19 57.4017 104.19C55.8897 104.19 55.1197 105.408 55.1197 107.144ZM58.6477 107.144C58.6477 108.53 58.2137 109.328 57.4017 109.328C56.6177 109.328 56.1837 108.53 56.1837 107.144C56.1837 105.744 56.6177 104.946 57.4017 104.946C58.2137 104.946 58.6477 105.744 58.6477 107.144Z" fill="#111111"/>
<circle cx="155.5" cy="97" r="44.5" stroke="#111111"/>
<circle cx="155.5" cy="97" r="35" fill="white"/>
<g filter="url(#filter1_d_36_90245)">
<path d="M155.5 128.5C155.5 130.433 153.929 132.018 152.006 131.825C148.608 131.484 145.272 130.647 142.106 129.336C137.86 127.577 134.001 124.999 130.751 121.749C127.501 118.499 124.923 114.64 123.164 110.394C121.405 106.148 120.5 101.596 120.5 97C120.5 92.4037 121.405 87.8525 123.164 83.6061C124.923 79.3597 127.501 75.5013 130.751 72.2513C134.001 69.0012 137.86 66.4231 142.106 64.6642C145.272 63.3527 148.608 62.5158 152.006 62.1749C153.929 61.9819 155.5 63.567 155.5 65.5C155.5 67.433 153.927 68.9775 152.009 69.2185C149.532 69.5298 147.101 70.1718 144.785 71.1314C141.388 72.5385 138.301 74.601 135.701 77.201C133.101 79.801 131.039 82.8877 129.631 86.2849C128.224 89.682 127.5 93.323 127.5 97C127.5 100.677 128.224 104.318 129.631 107.715C131.039 111.112 133.101 114.199 135.701 116.799C138.301 119.399 141.388 121.461 144.785 122.869C147.101 123.828 149.532 124.47 152.009 124.782C153.927 125.023 155.5 126.567 155.5 128.5Z" fill="#111111"/>
</g>
<path d="M142.948 86.328C142.948 84.62 141.604 83.668 139.728 83.668C137.572 83.668 136.172 84.998 136.2 87.014H137.516C137.544 85.334 138.608 84.732 139.7 84.732C140.904 84.732 141.604 85.446 141.604 86.496C141.604 88.288 139.504 90.206 135.92 92.852V94H143.228V92.81H137.656C140.498 90.766 142.948 88.68 142.948 86.328ZM143.632 83.85V85.04H149.176C146.656 87.224 145.046 90.36 144.822 94H146.362C146.6 90.206 148.154 87.07 150.66 85.04V83.85H143.632ZM161.538 95.666V92.894H160.488V86.468H155.406L155.308 88.89C155.182 91.774 154.748 92.894 153.894 92.894H153.558V95.666H154.79V94H160.306V95.666H161.538ZM159.214 87.574V92.894H155.546C156.134 92.32 156.456 91.256 156.568 89.016L156.638 87.574H159.214ZM163.326 90.654H169.122C169.29 88.274 167.904 86.342 165.608 86.342C163.55 86.342 161.954 87.868 161.954 90.248C161.954 92.474 163.27 94.182 165.65 94.182C167.484 94.182 168.674 93.118 169.024 91.816H167.708C167.386 92.558 166.77 93.062 165.65 93.062C164.53 93.062 163.382 92.278 163.326 90.654ZM163.34 89.562C163.452 88.05 164.474 87.434 165.608 87.434C166.952 87.434 167.75 88.498 167.778 89.562H163.34ZM172.664 90.654L175.254 94H176.836L173.7 90.024L176.542 86.468H175.03L172.636 89.548H171.698V86.468H170.41V94H171.698V90.654H172.664Z" fill="#111111"/>
<path opacity="0.6" d="M148.448 102.328C148.448 100.62 147.104 99.668 145.228 99.668C143.072 99.668 141.672 100.998 141.7 103.014H143.016C143.044 101.334 144.108 100.732 145.2 100.732C146.404 100.732 147.104 101.446 147.104 102.496C147.104 104.288 145.004 106.206 141.42 108.852V110H148.728V108.81H143.156C145.998 106.766 148.448 104.68 148.448 102.328ZM155.474 106.668C155.474 108.236 154.424 109.118 153.206 109.118C151.792 109.118 151.106 108.334 150.91 107.06H149.594C149.79 108.698 150.854 110.182 153.206 110.182C155.096 110.182 156.818 108.978 156.818 106.654C156.818 104.414 155.264 103.154 153.486 103.154C152.646 103.154 151.834 103.406 151.302 103.924L151.652 101.04H156.44V99.85H150.616L149.958 105.31L151.232 105.38C151.456 104.876 152.142 104.26 153.192 104.26C154.298 104.26 155.474 104.988 155.474 106.668ZM157.72 102.706C157.72 104.442 158.49 105.66 160.002 105.66C161.542 105.66 162.312 104.442 162.312 102.706C162.312 100.97 161.542 99.752 160.002 99.752C158.49 99.752 157.72 100.97 157.72 102.706ZM159.988 110H161.402L168.402 99.85H166.988L159.988 110ZM161.248 102.706C161.248 104.092 160.814 104.89 160.002 104.89C159.218 104.89 158.784 104.092 158.784 102.706C158.784 101.306 159.218 100.508 160.002 100.508C160.814 100.508 161.248 101.306 161.248 102.706ZM166.12 107.144C166.12 108.88 166.89 110.098 168.402 110.098C169.942 110.098 170.712 108.88 170.712 107.144C170.712 105.408 169.942 104.19 168.402 104.19C166.89 104.19 166.12 105.408 166.12 107.144ZM169.648 107.144C169.648 108.53 169.214 109.328 168.402 109.328C167.618 109.328 167.184 108.53 167.184 107.144C167.184 105.744 167.618 104.946 168.402 104.946C169.214 104.946 169.648 105.744 169.648 107.144Z" fill="#111111"/>
<circle cx="265.5" cy="97" r="44.5" stroke="#111111"/>
<circle cx="265.5" cy="97" r="35" fill="white"/>
<g filter="url(#filter2_d_36_90245)">
<path d="M297.004 96.9981C298.937 96.9981 300.522 98.569 300.329 100.492C299.758 106.18 297.801 111.661 294.605 116.443C290.76 122.199 285.293 126.685 278.898 129.334C272.502 131.983 265.465 132.676 258.676 131.326C251.886 129.975 245.65 126.642 240.755 121.747C235.86 116.852 232.527 110.616 231.176 103.826C229.826 97.0369 230.519 89.9995 233.168 83.6041C235.817 77.2087 240.303 71.7425 246.059 67.8966C250.841 64.7011 256.322 62.7436 262.01 62.1729C263.933 61.9799 265.504 63.5651 265.504 65.498C265.504 67.431 263.931 68.9755 262.013 69.2165C257.712 69.7569 253.579 71.291 249.948 73.7169C245.343 76.7936 241.755 81.1666 239.635 86.2829C237.516 91.3992 236.962 97.0291 238.042 102.461C239.122 107.892 241.789 112.881 245.705 116.797C249.621 120.713 254.61 123.38 260.041 124.46C265.473 125.54 271.103 124.986 276.219 122.867C281.335 120.747 285.708 117.159 288.785 112.554C291.211 108.923 292.745 104.79 293.285 100.489C293.526 98.5711 295.071 96.9981 297.004 96.9981Z" fill="#111111"/>
</g>
<path d="M248.02 94H249.294V83.85H248.426C247.866 84.956 247.124 85.138 245.668 85.194V86.062H248.02V94ZM254.994 94.182C257.696 94.182 258.942 92.138 258.942 88.918C258.942 85.712 257.696 83.668 254.994 83.668C252.292 83.668 251.046 85.712 251.046 88.918C251.046 92.138 252.292 94.182 254.994 94.182ZM254.994 84.732C256.59 84.732 257.584 86.104 257.584 88.918C257.584 91.746 256.59 93.118 254.994 93.118C253.398 93.118 252.404 91.746 252.404 88.918C252.404 86.104 253.398 84.732 254.994 84.732ZM269.042 94V86.468H266.088C264.366 86.468 263.288 87.252 263.288 88.792C263.288 89.912 263.946 90.64 264.884 90.962L262.602 94H264.184L266.228 91.312C266.382 91.326 266.522 91.326 266.606 91.326H267.768V94H269.042ZM266.158 87.574H267.768V90.22H266.27C265.388 90.22 264.59 89.898 264.59 88.876C264.59 87.966 265.234 87.574 266.158 87.574ZM275.913 94H277.187V86.468H275.913V89.604H272.189V86.468H270.915V94H272.189V90.71H275.913V94ZM282.333 86.468H279.057V94H282.557C284.167 94 285.385 93.37 285.385 91.802C285.385 90.794 284.797 90.262 284.027 90.038C284.713 89.744 285.077 89.184 285.077 88.386C285.077 86.86 283.845 86.468 282.333 86.468ZM282.249 89.632H280.331V87.574H282.207C283.145 87.574 283.747 87.742 283.747 88.526C283.747 89.38 283.173 89.632 282.249 89.632ZM280.331 92.894V90.682H282.319C283.481 90.682 284.055 90.962 284.055 91.788C284.055 92.572 283.481 92.894 282.361 92.894H280.331Z" fill="#111111"/>
<path opacity="0.6" d="M257.948 102.328C257.948 100.62 256.604 99.668 254.728 99.668C252.572 99.668 251.172 100.998 251.2 103.014H252.516C252.544 101.334 253.608 100.732 254.7 100.732C255.904 100.732 256.604 101.446 256.604 102.496C256.604 104.288 254.504 106.206 250.92 108.852V110H258.228V108.81H252.656C255.498 106.766 257.948 104.68 257.948 102.328ZM264.974 106.668C264.974 108.236 263.924 109.118 262.706 109.118C261.292 109.118 260.606 108.334 260.41 107.06H259.094C259.29 108.698 260.354 110.182 262.706 110.182C264.596 110.182 266.318 108.978 266.318 106.654C266.318 104.414 264.764 103.154 262.986 103.154C262.146 103.154 261.334 103.406 260.802 103.924L261.152 101.04H265.94V99.85H260.116L259.458 105.31L260.732 105.38C260.956 104.876 261.642 104.26 262.692 104.26C263.798 104.26 264.974 104.988 264.974 106.668ZM267.22 102.706C267.22 104.442 267.99 105.66 269.502 105.66C271.042 105.66 271.812 104.442 271.812 102.706C271.812 100.97 271.042 99.752 269.502 99.752C267.99 99.752 267.22 100.97 267.22 102.706ZM269.488 110H270.902L277.902 99.85H276.488L269.488 110ZM270.748 102.706C270.748 104.092 270.314 104.89 269.502 104.89C268.718 104.89 268.284 104.092 268.284 102.706C268.284 101.306 268.718 100.508 269.502 100.508C270.314 100.508 270.748 101.306 270.748 102.706ZM275.62 107.144C275.62 108.88 276.39 110.098 277.902 110.098C279.442 110.098 280.212 108.88 280.212 107.144C280.212 105.408 279.442 104.19 277.902 104.19C276.39 104.19 275.62 105.408 275.62 107.144ZM279.148 107.144C279.148 108.53 278.714 109.328 277.902 109.328C277.118 109.328 276.684 108.53 276.684 107.144C276.684 105.744 277.118 104.946 277.902 104.946C278.714 104.946 279.148 105.744 279.148 107.144Z" fill="#111111"/>
<circle cx="375.5" cy="97" r="44.5" stroke="#111111"/>
<circle cx="375.5" cy="97" r="35" fill="white"/>
<g filter="url(#filter3_d_36_90245)">
<circle cx="375.5" cy="97" r="35" transform="rotate(90 375.5 97)" fill="#111111"/>
</g>
<path d="M361.948 86.328C361.948 84.62 360.604 83.668 358.728 83.668C356.572 83.668 355.172 84.998 355.2 87.014H356.516C356.544 85.334 357.608 84.732 358.7 84.732C359.904 84.732 360.604 85.446 360.604 86.496C360.604 88.288 358.504 90.206 354.92 92.852V94H362.228V92.81H356.656C359.498 90.766 361.948 88.68 361.948 86.328ZM370.482 91.494V90.29H368.62V83.85H367.318L362.292 90.29V91.494H367.332V94H368.62V91.494H370.482ZM363.706 90.29L367.332 85.6V90.29H363.706ZM380.203 94V86.468H377.249C375.527 86.468 374.449 87.252 374.449 88.792C374.449 89.912 375.107 90.64 376.045 90.962L373.763 94H375.345L377.389 91.312C377.543 91.326 377.683 91.326 377.767 91.326H378.929V94H380.203ZM377.319 87.574H378.929V90.22H377.431C376.549 90.22 375.751 89.898 375.751 88.876C375.751 87.966 376.395 87.574 377.319 87.574ZM387.073 94H388.347V86.468H387.073V89.604H383.349V86.468H382.075V94H383.349V90.71H387.073V94ZM393.493 86.468H390.217V94H393.717C395.327 94 396.545 93.37 396.545 91.802C396.545 90.794 395.957 90.262 395.187 90.038C395.873 89.744 396.237 89.184 396.237 88.386C396.237 86.86 395.005 86.468 393.493 86.468ZM393.409 89.632H391.491V87.574H393.367C394.305 87.574 394.907 87.742 394.907 88.526C394.907 89.38 394.333 89.632 393.409 89.632ZM391.491 92.894V90.682H393.479C394.641 90.682 395.215 90.962 395.215 91.788C395.215 92.572 394.641 92.894 393.521 92.894H391.491Z" fill="white"/>
<path opacity="0.6" d="M367.948 102.328C367.948 100.62 366.604 99.668 364.728 99.668C362.572 99.668 361.172 100.998 361.2 103.014H362.516C362.544 101.334 363.608 100.732 364.7 100.732C365.904 100.732 366.604 101.446 366.604 102.496C366.604 104.288 364.504 106.206 360.92 108.852V110H368.228V108.81H362.656C365.498 106.766 367.948 104.68 367.948 102.328ZM374.974 106.668C374.974 108.236 373.924 109.118 372.706 109.118C371.292 109.118 370.606 108.334 370.41 107.06H369.094C369.29 108.698 370.354 110.182 372.706 110.182C374.596 110.182 376.318 108.978 376.318 106.654C376.318 104.414 374.764 103.154 372.986 103.154C372.146 103.154 371.334 103.406 370.802 103.924L371.152 101.04H375.94V99.85H370.116L369.458 105.31L370.732 105.38C370.956 104.876 371.642 104.26 372.692 104.26C373.798 104.26 374.974 104.988 374.974 106.668ZM377.22 102.706C377.22 104.442 377.99 105.66 379.502 105.66C381.042 105.66 381.812 104.442 381.812 102.706C381.812 100.97 381.042 99.752 379.502 99.752C377.99 99.752 377.22 100.97 377.22 102.706ZM379.488 110H380.902L387.902 99.85H386.488L379.488 110ZM380.748 102.706C380.748 104.092 380.314 104.89 379.502 104.89C378.718 104.89 378.284 104.092 378.284 102.706C378.284 101.306 378.718 100.508 379.502 100.508C380.314 100.508 380.748 101.306 380.748 102.706ZM385.62 107.144C385.62 108.88 386.39 110.098 387.902 110.098C389.442 110.098 390.212 108.88 390.212 107.144C390.212 105.408 389.442 104.19 387.902 104.19C386.39 104.19 385.62 105.408 385.62 107.144ZM389.148 107.144C389.148 108.53 388.714 109.328 387.902 109.328C387.118 109.328 386.684 108.53 386.684 107.144C386.684 105.744 387.118 104.946 387.902 104.946C388.714 104.946 389.148 105.744 389.148 107.144Z" fill="white"/>
<defs>
<filter id="filter0_d_36_90245" x="8.66016" y="62.1592" width="38.8398" height="38.8408" filterUnits="userSpaceOnUse" color-interpolation-filters="sRGB">
<feFlood flood-opacity="0" result="BackgroundImageFix"/>
<feColorMatrix in="SourceAlpha" type="matrix" values="0 0 0 0 0 0 0 0 0 0 0 0 0 0 0 0 0 0 127 0" result="hardAlpha"/>
<feOffset dy="2"/>
<feGaussianBlur stdDeviation="1"/>
<feComposite in2="hardAlpha" operator="out"/>
<feColorMatrix type="matrix" values="0 0 0 0 0 0 0 0 0 0 0 0 0 0 0 0 0 0 0.25 0"/>
<feBlend mode="normal" in2="BackgroundImageFix" result="effect1_dropShadow_36_90245"/>
<feBlend mode="normal" in="SourceGraphic" in2="effect1_dropShadow_36_90245" result="shape"/>
</filter>
<filter id="filter1_d_36_90245" x="118.5" y="62.1592" width="39" height="73.6816" filterUnits="userSpaceOnUse" color-interpolation-filters="sRGB">
<feFlood flood-opacity="0" result="BackgroundImageFix"/>
<feColorMatrix in="SourceAlpha" type="matrix" values="0 0 0 0 0 0 0 0 0 0 0 0 0 0 0 0 0 0 127 0" result="hardAlpha"/>
<feOffset dy="2"/>
<feGaussianBlur stdDeviation="1"/>
<feComposite in2="hardAlpha" operator="out"/>
<feColorMatrix type="matrix" values="0 0 0 0 0 0 0 0 0 0 0 0 0 0 0 0 0 0 0.25 0"/>
<feBlend mode="normal" in2="BackgroundImageFix" result="effect1_dropShadow_36_90245"/>
<feBlend mode="normal" in="SourceGraphic" in2="effect1_dropShadow_36_90245" result="shape"/>
</filter>
<filter id="filter2_d_36_90245" x="228.504" y="62.1572" width="73.8398" height="73.8408" filterUnits="userSpaceOnUse" color-interpolation-filters="sRGB">
<feFlood flood-opacity="0" result="BackgroundImageFix"/>
<feColorMatrix in="SourceAlpha" type="matrix" values="0 0 0 0 0 0 0 0 0 0 0 0 0 0 0 0 0 0 127 0" result="hardAlpha"/>
<feOffset dy="2"/>
<feGaussianBlur stdDeviation="1"/>
<feComposite in2="hardAlpha" operator="out"/>
<feColorMatrix type="matrix" values="0 0 0 0 0 0 0 0 0 0 0 0 0 0 0 0 0 0 0.25 0"/>
<feBlend mode="normal" in2="BackgroundImageFix" result="effect1_dropShadow_36_90245"/>
<feBlend mode="normal" in="SourceGraphic" in2="effect1_dropShadow_36_90245" result="shape"/>
</filter>
<filter id="filter3_d_36_90245" x="338.5" y="62" width="74" height="74" filterUnits="userSpaceOnUse" color-interpolation-filters="sRGB">
<feFlood flood-opacity="0" result="BackgroundImageFix"/>
<feColorMatrix in="SourceAlpha" type="matrix" values="0 0 0 0 0 0 0 0 0 0 0 0 0 0 0 0 0 0 127 0" result="hardAlpha"/>
<feOffset dy="2"/>
<feGaussianBlur stdDeviation="1"/>
<feComposite in2="hardAlpha" operator="out"/>
<feColorMatrix type="matrix" values="0 0 0 0 0 0 0 0 0 0 0 0 0 0 0 0 0 0 0.25 0"/>
<feBlend mode="normal" in2="BackgroundImageFix" result="effect1_dropShadow_36_90245"/>
<feBlend mode="normal" in="SourceGraphic" in2="effect1_dropShadow_36_90245" result="shape"/>
</filter>
<clipPath id="clip0_36_90245">
<rect width="110" height="21" fill="white" transform="translate(8.5 5.5)"/>
</clipPath>
</defs>
</svg>
