<svg width="100" height="17" viewBox="0 0 100 17" fill="none" xmlns="http://www.w3.org/2000/svg">
<path d="M13.4852 16.9875H9.04972L5.85109 7.97697L4.25912 16.9875L0 16.9826L3.00759 0H7.26672L10.5805 9.30933L12.2214 0C13.6444 0 15.0649 0 16.4879 0L13.4852 16.9875Z" fill="#150900" fill-opacity="0.95"/>
<path d="M32.5202 0.0147095C34.2664 0.0147095 36.0127 0.0147095 37.7614 0.0147095L29.6179 8.33702L34.8518 16.9998H29.6203L25.9245 10.8793L24.842 16.9998L20.5878 16.9875L23.5954 0.0147095H27.852L26.8136 5.86825L32.5202 0.0147095Z" fill="#150900" fill-opacity="0.95"/>
<path d="M54.1514 11.4083C51.8418 11.4083 49.0694 11.4107 46.7598 11.4058L45.7777 16.9875L41.521 16.9851L44.531 0.00244141H56.1769L55.4225 4.26157L48.0285 4.25667L47.5141 7.1565L54.9131 7.15405L54.1514 11.4083Z" fill="#150900" fill-opacity="0.95"/>
<path d="M70.9969 16.9851H60.1053L63.1154 0.00244141H67.3721L65.1115 12.7333H71.7488L70.9969 16.9851Z" fill="#150900" fill-opacity="0.95"/>
<path d="M19.15 16.9875H14.886L17.8985 0.00244141H22.1552L19.15 16.9875Z" fill="#150900" fill-opacity="0.95"/>
<path d="M91.3275 16.9875L86.8945 16.99L83.6958 7.97942L82.1039 16.99L77.8447 16.9851L80.8523 0.00244141H85.109L88.4227 9.31423L90.0637 0.00244141H94.3302L91.3275 16.9875Z" fill="#150900" fill-opacity="0.95"/>
<path d="M96.9949 16.9875H92.7284L95.7433 0.00244141H100L96.9949 16.9875Z" fill="#150900" fill-opacity="0.95"/>
<path d="M40.0808 16.9875H35.8168L38.8317 0.00244141H43.0884L40.0808 16.9875Z" fill="#150900" fill-opacity="0.95"/>
<path d="M58.6676 16.9875H54.4011L57.4161 0.00244141H61.6727L58.6676 16.9875Z" fill="#150900" fill-opacity="0.95"/>
<path d="M76.3923 16.9875H72.1283L75.1432 0.00244141C76.5662 0.00244141 77.9769 0.00244141 79.3999 0.00244141L76.3923 16.9875Z" fill="#150900" fill-opacity="0.95"/>
</svg>
